<svg width="60" height="30" viewBox="0 0 60 30" fill="none" xmlns="http://www.w3.org/2000/svg">
<path d="M12.3628 9.18985C12.9402 8.98617 13.5562 8.87756 14.1952 8.87756C16.9926 8.87756 19.328 10.9795 19.8618 13.7739L23.8269 12.9185C22.9184 8.17148 18.9508 4.59766 14.1952 4.59766C13.1045 4.59766 12.06 4.78504 11.0796 5.13264L12.3628 9.18985Z" fill="#FFCB05"/>
<path d="M7.68447 22.7843L10.3664 19.5772C9.1704 18.4557 8.41586 16.818 8.41586 14.9931C8.41586 13.1709 9.1704 11.5334 10.3664 10.4145L7.68447 7.20459C5.65186 9.11097 4.36865 11.8945 4.36865 14.9931C4.36865 18.0944 5.65186 20.8779 7.68447 22.7843Z" fill="#00A4E0"/>
<path d="M19.8618 16.2207C19.3254 19.0125 16.9926 21.1116 14.1978 21.1116C13.5562 21.1116 12.9377 21.0031 12.3628 20.7967L11.0796 24.8592C12.06 25.2041 13.1071 25.3915 14.1978 25.3915C18.9482 25.3915 22.9133 21.8231 23.8269 17.0816L19.8618 16.2207Z" fill="#EF4123"/>
<path d="M27.2947 19.7103C27.1638 19.4875 26.9893 19.1318 26.8815 18.8683C26.2528 17.3259 26.2245 15.7291 26.7532 14.1974C27.3358 12.5164 28.4496 11.2319 29.8894 10.5747C31.6987 9.75187 33.6979 9.91208 35.4328 11.0011C36.5337 11.6691 37.3139 12.7011 37.9069 14.1621C37.9813 14.3495 38.0481 14.5477 38.1146 14.7188L27.2947 19.7103ZM30.9082 13.0541C29.6225 13.638 28.9603 14.9144 29.0989 16.408L34.5397 13.9286C33.603 12.7663 32.3865 12.3806 30.9082 13.0541ZM35.2172 18.4474C35.2147 18.4474 35.2147 18.4501 35.2147 18.4501L35.1017 18.3687C34.7758 18.9254 34.2702 19.3788 33.6312 19.6722C32.4147 20.2316 31.2881 20.0877 30.4771 19.3355L30.4027 19.455C30.4027 19.455 30.4027 19.4523 30.4001 19.4523L29.0193 21.6384C29.3633 21.8909 29.7303 22.1027 30.1152 22.2737C31.6397 22.9445 33.2001 22.912 34.7373 22.206C35.8486 21.6953 36.7213 20.9187 37.3164 19.9328L35.2172 18.4474ZM41.8952 7.35938V19.5092L43.6812 20.2751L42.6675 22.7789L40.6967 21.91C40.255 21.7063 39.9524 21.3967 39.7264 21.0463C39.5082 20.6906 39.3465 20.1991 39.3465 19.5419V7.35938H41.8952ZM46.5196 16.4161C46.5196 15.3814 46.9533 14.4527 47.6361 13.8227L45.8037 11.661C44.5617 12.8233 43.7786 14.5206 43.7786 16.4107C43.7761 18.3035 44.5588 20.0034 45.7987 21.1659L47.6282 19.0041C46.9483 18.3714 46.5196 17.4481 46.5196 16.4161ZM49.774 19.8622C49.4147 19.8622 49.0657 19.7972 48.7423 19.6831L47.8672 22.434C48.4652 22.646 49.1042 22.7627 49.7715 22.7627C52.6713 22.7654 55.0917 20.5875 55.6537 17.6952L52.9638 17.114C52.6587 18.6865 51.347 19.8649 49.774 19.8622ZM49.7816 10.0696C49.1167 10.0696 48.4778 10.1837 47.8798 10.3928L48.7473 13.1465C49.0733 13.0324 49.4197 12.9699 49.7791 12.9699C51.3549 12.9727 52.6688 14.1567 52.9667 15.7318L55.6562 15.1561C55.1042 12.2584 52.6842 10.0723 49.7816 10.0696Z" fill="white"/>
</svg>
