<svg width="67" height="13" viewBox="0 0 67 13" fill="none" xmlns="http://www.w3.org/2000/svg">
<path d="M0.409091 12V0.363621H4.34091C5.25 0.363621 5.99621 0.518924 6.57955 0.82953C7.16288 1.13635 7.5947 1.5587 7.875 2.09658C8.1553 2.63445 8.29545 3.2462 8.29545 3.9318C8.29545 4.61741 8.1553 5.22536 7.875 5.75567C7.5947 6.28597 7.16477 6.70264 6.58523 7.00567C6.00568 7.30491 5.26515 7.45453 4.36364 7.45453H1.18182V6.1818H4.31818C4.93939 6.1818 5.43939 6.09089 5.81818 5.90908C6.20076 5.72726 6.47727 5.46968 6.64773 5.13635C6.82197 4.79923 6.90909 4.39771 6.90909 3.9318C6.90909 3.46589 6.82197 3.0587 6.64773 2.71021C6.47349 2.36173 6.19508 2.09279 5.8125 1.90339C5.42992 1.71021 4.92424 1.61362 4.29545 1.61362H1.81818V12H0.409091ZM5.88636 6.77271L8.75 12H7.11364L4.29545 6.77271H5.88636ZM12.0526 0.363621V12H10.6435V0.363621H12.0526ZM24.2415 3.99998H22.8324C22.7491 3.59468 22.6032 3.23862 22.3949 2.9318C22.1903 2.62498 21.9403 2.36741 21.6449 2.15908C21.3532 1.94695 21.0294 1.78786 20.6733 1.6818C20.3172 1.57574 19.946 1.52271 19.5597 1.52271C18.8551 1.52271 18.2169 1.70074 17.6449 2.0568C17.0767 2.41286 16.6241 2.93748 16.2869 3.63067C15.9536 4.32385 15.7869 5.17423 15.7869 6.1818C15.7869 7.18938 15.9536 8.03976 16.2869 8.73294C16.6241 9.42612 17.0767 9.95074 17.6449 10.3068C18.2169 10.6629 18.8551 10.8409 19.5597 10.8409C19.946 10.8409 20.3172 10.7879 20.6733 10.6818C21.0294 10.5757 21.3532 10.4185 21.6449 10.2102C21.9403 9.99809 22.1903 9.73862 22.3949 9.4318C22.6032 9.1212 22.7491 8.76514 22.8324 8.36362H24.2415C24.1354 8.95832 23.9422 9.49051 23.6619 9.96021C23.3816 10.4299 23.0331 10.8295 22.6165 11.1591C22.1998 11.4848 21.732 11.7329 21.2131 11.9034C20.6979 12.0738 20.1468 12.1591 19.5597 12.1591C18.5672 12.1591 17.6847 11.9167 16.9119 11.4318C16.1392 10.947 15.5313 10.2576 15.0881 9.36362C14.6449 8.46968 14.4233 7.40908 14.4233 6.1818C14.4233 4.95453 14.6449 3.89392 15.0881 2.99998C15.5313 2.10605 16.1392 1.41665 16.9119 0.931803C17.6847 0.446954 18.5672 0.20453 19.5597 0.20453C20.1468 0.20453 20.6979 0.289757 21.2131 0.460212C21.732 0.630666 22.1998 0.880666 22.6165 1.21021C23.0331 1.53597 23.3816 1.9337 23.6619 2.40339C23.9422 2.8693 24.1354 3.4015 24.2415 3.99998ZM26.5185 12V0.363621H27.9276V6.13635H28.0639L33.2912 0.363621H35.1321L30.2457 5.61362L35.1321 12H33.4276L29.3821 6.59089L27.9276 8.22726V12H26.5185Z" fill="#959595"/>
<path d="M36.5582 12V0.363621H41.1491C42.0317 0.363621 42.7836 0.532181 43.4048 0.869303C44.026 1.20264 44.4995 1.66665 44.8253 2.26135C45.1548 2.85226 45.3196 3.53408 45.3196 4.3068C45.3196 5.07953 45.1529 5.76135 44.8196 6.35226C44.4863 6.94317 44.0033 7.40339 43.3707 7.73294C42.742 8.06248 41.9806 8.22726 41.0866 8.22726H38.1605V6.25567H40.6889C41.1624 6.25567 41.5526 6.17423 41.8594 6.01135C42.17 5.84468 42.401 5.61551 42.5526 5.32385C42.7079 5.02839 42.7855 4.68938 42.7855 4.3068C42.7855 3.92044 42.7079 3.58332 42.5526 3.29544C42.401 3.00377 42.17 2.77839 41.8594 2.6193C41.5488 2.45642 41.1548 2.37498 40.6776 2.37498H39.0185V12H36.5582ZM47.5795 12H44.9432L48.9602 0.363621H52.1307L56.142 12H53.5057L50.5909 3.02271H50.5L47.5795 12ZM47.4148 7.42612H53.642V9.34658H47.4148V7.42612ZM55.6733 0.363621H58.429L61.0824 5.37498H61.196L63.8494 0.363621H66.6051L62.3608 7.88635V12H59.9176V7.88635L55.6733 0.363621Z" fill="white"/>
</svg>
